<?xml version="1.0" encoding="utf-8"?>
<!-- Generator: Adobe Illustrator 17.1.0, SVG Export Plug-In . SVG Version: 6.00 Build 0)  -->
<!DOCTYPE svg PUBLIC "-//W3C//DTD SVG 1.1//EN" "http://www.w3.org/Graphics/SVG/1.1/DTD/svg11.dtd">
<svg version="1.1" id="Layer_1" xmlns="http://www.w3.org/2000/svg" xmlns:xlink="http://www.w3.org/1999/xlink" x="0px" y="0px"
	 viewBox="0 0 140 40" enable-background="new 0 0 140 40" xml:space="preserve">
<g id="XMLID_81_">
	<path id="XMLID_30_" fill="#FFFFFF" d="M4.1,37.5c1.6,1.6,3.9,2.6,6.4,2.6c0.5,0,0.9,0,1.4,0c3.1,0,6.3,0,9.4,0c3.1,0,6.2,0,9.4,0
		c0.5,0,1.1,0,1.6,0c2.5,0,4.8-1,6.4-2.6c0.6-0.6,1.2-1.4,1.6-2.2c0.7-1.3,1-2.7,1-4.2c0-0.4,0-0.9,0-1.3c0-2,0-4,0-6
		c0-2.8,0-5.7,0-8.5c0-1.8,0-3.5,0-5.3c0-0.2,0-0.5,0-0.7c0-1.3-0.3-2.6-0.8-3.7c-0.5-1-1.1-1.9-1.9-2.7c-1.6-1.6-3.9-2.6-6.4-2.6
		c-0.5,0-1.1,0-1.6,0c-3.1,0-6.2,0-9.4,0c-3.1,0-6.3,0-9.4,0c-0.5,0-0.9,0-1.4,0c-2.5,0-4.8,1-6.4,2.6C3.3,3.7,2.6,4.6,2.2,5.7
		C1.7,6.8,1.4,8,1.4,9.3c0,0.2,0,0.5,0,0.7c0,1.8,0,3.5,0,5.3c0,2.8,0,5.7,0,8.5c0,2,0,4,0,6c0,0.4,0,0.9,0,1.3c0,1.5,0.4,3,1,4.2
		C2.9,36.1,3.4,36.8,4.1,37.5z"/>
	<g id="XMLID_31_">
		<path id="XMLID_44_" fill="#010101" d="M27.5,5.6H15.1c-4.7,0-8.4,3.8-8.4,8.4v12.4c0,4.7,3.8,8.4,8.4,8.4h12.4
			c4.7,0,8.4-3.8,8.4-8.4V14.1C35.9,9.4,32.2,5.6,27.5,5.6z M33.2,26.6c0,3.1-2.5,5.6-5.6,5.6H15c-3.1,0-5.6-2.5-5.6-5.6V14
			c0-3.1,2.5-5.6,5.6-5.6h12.6c3.1,0,5.6,2.5,5.6,5.6V26.6z"/>
		<path id="XMLID_33_" fill="#010101" d="M21.3,12.7c-4.2,0-7.6,3.4-7.6,7.6s3.4,7.6,7.6,7.6c4.2,0,7.6-3.4,7.6-7.6
			S25.5,12.7,21.3,12.7z M21.3,25.2c-2.7,0-4.9-2.2-4.9-4.9c0-2.7,2.2-4.9,4.9-4.9c2.7,0,4.9,2.2,4.9,4.9C26.2,23,24,25.2,21.3,25.2
			z"/>
		<circle id="XMLID_32_" fill="#010101" cx="29.2" cy="12.5" r="1.8"/>
	</g>
</g>
<g id="XMLID_29_">
	<path id="XMLID_56_" fill-rule="evenodd" clip-rule="evenodd" fill="#050505" d="M52.8,7.1c0.3-0.1,0.5,0,0.8,0
		c0.4,0.1,0.8,0.2,1.1,0.5C54.9,7.7,55,7.9,55,8.1c0,3.8,0,7.5,0,11.3c0,1.2,0.1,2.5-0.2,3.7c-0.2,1-0.6,2-1.3,2.7
		c-0.2,0.3-0.5,0.5-0.8,0.7c-0.3,0.1-0.5,0.3-0.9,0.2c-0.1-0.1-0.1-0.2-0.1-0.3c0-0.3,0.1-0.6,0.2-0.8c0.3-0.9,0.4-1.9,0.4-2.9
		c0-4.6,0-9.2,0.1-13.7c0-0.1,0-0.2,0-0.4c-0.2,0-0.3,0.2-0.4,0.3c-0.6,0.5-1,1.2-1.3,1.9c-0.4,0.9-0.6,1.9-0.7,2.9
		c-0.1,0.6,0,1.3,0.1,1.9c0.1,0.5,0.3,1,0.6,1.3c0.1,0.2,0.2,0.4,0.1,0.6c-0.2,0.2-0.4,0.1-0.6,0c-0.7-0.2-1.2-0.7-1.7-1.2
		c-0.5-0.7-0.7-1.5-0.8-2.3c0-0.7,0.2-1.4,0.5-2.1c0.4-1,1-1.9,1.7-2.7c0.5-0.5,1-0.9,1.6-1.3C52,7.4,52.4,7.2,52.8,7.1L52.8,7.1z
		 M77.6,7.3c0.2-0.2,0.5-0.2,0.8-0.1c0.5,0.1,0.9,0.2,1.4,0.4c0.1,0.1,0.3,0.1,0.4,0.2c0,1-0.1,2.1-0.1,3.1c1,0,2.1,0.1,3.1,0.2
		c0.2,0,0.4,0.1,0.4,0.3c0,0.3,0,0.7-0.2,0.9c-0.1,0.1-0.2,0.3-0.4,0.3c-1,0-2,0-3,0.1c-0.1,1.4-0.1,2.9-0.1,4.3
		c0,1.3-0.1,2.6,0,3.9c0.1,0.5,0.1,1,0.4,1.5c0.1,0.2,0.3,0.4,0.5,0.4c0.3,0,0.6-0.1,0.8-0.3c0.4-0.3,0.6-0.7,0.8-1.1
		c0.2-0.5,0.4-1,0.6-1.5c0.1-0.2,0-0.5,0-0.7c0-1.2,0.2-2.4,0.6-3.5c0.3-0.8,0.8-1.6,1.4-2.2c0.8-0.6,1.9-0.8,2.8-0.5
		c0.6,0.2,1.1,0.7,1.4,1.3c0-0.3,0-0.6,0.1-0.8c0.2-0.3,0.5-0.3,0.8-0.3c0.4,0,0.8,0.1,1.1,0.3c0.2,0.1,0.4,0.3,0.4,0.6
		c-0.1,2.2-0.2,4.4-0.1,6.6c0,0.5,0.1,1,0.2,1.4c0.1,0.3,0.2,0.7,0.5,0.9c0.3,0.2,0.6,0.1,0.9-0.1c0.4-0.3,0.6-0.8,0.8-1.2
		c0.1-0.1,0.1-0.3,0.1-0.4c-0.2-1.3-0.2-2.7,0-4c0.2-0.9,0.4-1.8,0.9-2.5c0.5-0.8,1.1-1.5,2-1.9c0.2-0.1,0.3-0.2,0.5-0.2
		c0.8,0,1.7,0.3,2.3,0.9c0.2,0.2,0.3,0.3,0.4,0.5c0.1-0.2,0-0.5,0.1-0.7c0.1-0.3,0.5-0.3,0.8-0.3c0.4,0.1,0.9,0.2,1.3,0.4
		c0.2,0.1,0.2,0.5,0.2,0.7c0,2.5-0.1,5-0.1,7.4c0.6-0.8,1.1-1.6,1.5-2.5c0.5-1.1,1-2.2,1.2-3.3c-0.3-0.3-0.6-0.6-0.7-1
		c-0.1-0.3,0-0.7,0.1-1c0.1-0.5,0.5-0.9,1-1.1c0.4-0.1,0.8-0.1,1.2,0.1c0.3,0.1,0.4,0.4,0.5,0.7c0.1,0.3,0,0.6-0.1,0.9
		c0.7-0.1,1.3-0.2,2-0.4c0.4-0.1,0.9-0.2,1.4,0c0.3,0.1,0.6,0.4,0.6,0.7c0.1,0.3,0.1,0.7,0,1c-0.2,0.4-0.2,0.9-0.3,1.4
		c-0.2,1.2-0.5,2.5-0.3,3.7c0.1,0.6,0.2,1.1,0.4,1.6c0.1,0.3,0.3,0.6,0.6,0.7c0.3,0.1,0.6-0.1,0.8-0.3c0.4-0.3,0.6-0.8,0.8-1.3
		c-0.3-1.3-0.3-2.6-0.1-3.9c0.2-1,0.4-2,0.9-2.8c0.4-0.7,0.9-1.3,1.6-1.6c0.8-0.4,1.7-0.4,2.5,0c0.5,0.2,0.8,0.6,1.1,1.1
		c0-0.3,0-0.6,0.1-0.8c0.2-0.3,0.6-0.2,0.9-0.2c0.4,0.1,0.9,0.2,1.3,0.5c0.2,0.2,0.1,0.5,0.1,0.8c0,1.4-0.1,2.9-0.1,4.3
		c0,1.1,0,2.2,0.3,3.3c0.1,0.3,0.2,0.6,0.4,0.7c0.3,0.2,0.7,0.2,0.9,0c0.4-0.3,0.6-0.6,0.8-1c0.2-0.3,0.4-0.7,0.4-1.1
		c0-2.4,0-4.9,0-7.3c0-0.2,0.1-0.4,0.3-0.5c0.1-0.1,0.3,0,0.5,0c0.4,0.1,0.9,0.1,1.3,0.3c0.1,0.1,0.3,0.2,0.3,0.4c0,1.2,0,2.4,0,3.6
		c0,0.1,0,0.3,0,0.4c0.4-1.1,0.7-2.2,1.1-3.3c0.2-0.4,0.3-0.8,0.6-1.2c0.2-0.3,0.5-0.3,0.9-0.3c0.7,0,1.3,0.3,1.7,0.9
		c0.1,0.2,0.2,0.5,0.2,0.7c0,1.2,0.1,2.5,0.1,3.7c0,0.4,0,0.8,0.1,1.2c0,0,0.1-0.1,0.1-0.1c0.1-0.9,0.4-1.8,0.6-2.7
		c0.3-1,0.6-2,1-2.9c0.1-0.2,0.2-0.5,0.5-0.6c0.3-0.2,0.8-0.1,1.1,0c0.4,0.1,0.8,0.3,1.2,0.6c0.2,0.2,0.4,0.5,0.4,0.8
		c-0.1,1.9-0.2,3.9-0.1,5.8c0,0.5,0.1,1.1,0.2,1.6c0.1,0.3,0.2,0.6,0.4,0.8c0.2,0.2,0.5,0.4,0.8,0.2c0.2-0.1,0.4-0.3,0.5-0.5
		c0.3-0.5,0.4-1.1,0.5-1.7c0-0.2,0.1-0.4,0.3-0.4c0.1-0.1,0.3,0,0.4,0.1c0.1,0.1,0.1,0.3,0.1,0.5c0,0.9-0.2,1.9-0.7,2.7
		c-0.4,0.6-1.2,1.1-2,1c-0.7,0-1.4-0.4-1.8-1.1c-0.5-0.7-0.7-1.6-0.8-2.5c-0.2-1.7-0.2-3.5-0.1-5.2c-0.1,0-0.1,0.1-0.2,0.2
		c-0.5,1-0.8,2-1.1,3.1c-0.3,1.4-0.6,2.8-0.6,4.2c0,0.2-0.1,0.3-0.3,0.4c-0.4,0.2-0.8,0.2-1.2,0c-0.4-0.2-0.7-0.5-0.9-0.9
		c-0.2-0.4-0.3-0.8-0.3-1.3c-0.2-1.8-0.3-3.6-0.4-5.4c0-0.1-0.1,0-0.2,0c-0.9,1.5-1.3,3.3-1.6,5c-0.1,1-0.2,2-0.2,3.1
		c0,0.2-0.1,0.4-0.3,0.5c-0.3,0.2-0.7,0.2-1,0.1c-0.4,0-0.8-0.1-1.2-0.3c-0.1-0.1-0.2-0.3-0.2-0.4c0-0.3,0-0.7-0.1-1
		c-0.2,0.3-0.3,0.6-0.6,0.8c-0.3,0.4-0.8,0.8-1.3,0.9c-0.8,0.2-1.6-0.1-2.1-0.6c-0.4-0.5-0.7-1.1-0.8-1.7c-0.4,0.8-1,1.6-1.8,2
		c-0.4,0.2-0.8,0.3-1.3,0.4c-0.5,0.1-1,0-1.4-0.2c-0.6-0.3-1.1-0.9-1.4-1.6c-0.3,0.8-0.9,1.5-1.8,1.7c-0.8,0.2-1.7-0.1-2.3-0.7
		c-0.8-0.8-1.2-1.8-1.3-2.9c-0.1-0.5,0-1,0-1.5c0.1-1.1,0.2-2.3,0.5-3.4c0-0.1,0-0.1,0-0.2c-0.6,0-1.2,0-1.8,0c-0.3,1-0.8,2-1.3,3
		c-0.9,1.6-1.9,3.2-3.1,4.6c0,1.4,0.1,2.7,0,4.1c-0.1,1.1-0.2,2.2-0.7,3.2c-0.3,0.7-0.9,1.4-1.6,1.8c-0.5,0.3-1.2,0.5-1.8,0.5
		c-0.8-0.1-1.6-0.2-2.2-0.8c-0.4-0.3-0.7-0.8-0.8-1.4c-0.1-0.5-0.1-1,0-1.4c0.3-0.8,0.8-1.6,1.4-2.2c0.6-0.7,1.3-1.3,1.9-1.9
		c0.5-0.5,1-1,1.6-1.4c0-0.4,0-0.8-0.1-1.1c-0.2,0.3-0.5,0.6-0.8,0.9c-0.7,0.7-1.8,1.1-2.9,1c-0.7-0.1-1.3-0.6-1.7-1.2
		c-0.2-0.2-0.3-0.4-0.4-0.7c-0.4,0.8-0.9,1.5-1.8,1.8c-0.8,0.2-1.8-0.1-2.3-0.8c-0.4-0.4-0.6-1-0.7-1.6c-0.4,0.8-0.9,1.5-1.6,1.9
		c-0.5,0.3-1,0.5-1.5,0.5c-0.6,0.1-1.2-0.1-1.7-0.4c-0.9-0.6-1.3-1.7-1.6-2.7c-0.1,0.4-0.4,0.9-0.6,1.3c-0.2,0.4-0.5,0.7-0.8,1
		c-0.4,0.4-0.8,0.7-1.4,0.7c-0.6,0.1-1.2-0.1-1.7-0.5c-0.4-0.3-0.7-0.7-0.9-1.2c-0.4-0.8-0.5-1.7-0.6-2.6c-0.5,1-1,2-1.8,2.8
		c-0.6,0.6-1.4,1.1-2.3,1.3c-0.7,0.2-1.4,0.2-2.1,0.1c-0.6-0.1-1.2-0.2-1.8-0.5c-0.3-0.2-0.5-0.4-0.6-0.7c0-0.3,0.1-0.6,0.3-0.9
		c0.2-0.2,0.4-0.5,0.7-0.6c0.3-0.1,0.5,0.1,0.7,0.3c0.3,0.3,0.7,0.5,1.1,0.6c0.4,0.1,0.9,0,1.2-0.4c0.2-0.3,0.3-0.8,0.3-1.2
		c0-0.8-0.5-1.4-1-1.9c-0.5-0.5-1-0.9-1.5-1.4c-0.7,1.2-1.5,2.4-2.2,3.6c-0.4,0.8-1,1.5-1.6,2.1c-0.5,0.4-1.1,0.8-1.7,0.9
		c-0.4,0.1-0.9-0.2-1.1-0.5c-0.3-0.4-0.5-1-0.6-1.5c-0.1-1-0.1-2-0.1-2.9c0-1.3,0.1-2.5,0.1-3.7c0-0.3,0-0.5,0-0.8
		c-0.1,0-0.2,0-0.2,0.1c-1.2,1.3-1.9,3-2.5,4.7c-0.5,1.5-0.8,3-1.1,4.5c-0.2,0.2-0.5,0.2-0.7,0.2c-0.3,0-0.6,0-0.9-0.1
		c-0.3-0.1-0.4-0.3-0.5-0.5c-0.2-0.5-0.2-1-0.2-1.6c0-3,0-5.9,0.1-8.9c0-0.1,0-0.3,0.2-0.4c0.3-0.1,0.6,0,0.9,0.1
		c0.3,0.1,0.7,0.2,1,0.4c0.1,0.1,0.1,0.3,0.1,0.5c0,1.6,0,3.3,0,4.9c0.5-1.5,1.1-2.9,1.9-4.2c0.2-0.3,0.4-0.5,0.6-0.8
		c0.4-0.5,0.9-0.9,1.6-0.9c0.5,0,0.9,0.2,1.3,0.4c0.4,0.2,0.8,0.5,0.9,0.9c0.1,0.2,0.1,0.5,0.1,0.8c0,1.4-0.1,2.8-0.1,4.2
		c0,0.6-0.1,1.2,0,1.7c0,0.3,0,0.6,0.1,0.8c0.1,0.1,0.1,0.3,0.3,0.3c0.2,0,0.3-0.1,0.4-0.2c0.3-0.2,0.5-0.5,0.7-0.8
		c0.6-0.8,1.1-1.7,1.6-2.6c0.3-0.5,0.6-1.1,0.9-1.6c-0.1-0.2-0.2-0.3-0.3-0.5c-0.3-0.5-0.4-1.2-0.2-1.8c0.2-0.6,0.5-1.1,1-1.5
		c0.3-0.2,0.7-0.4,1.1-0.5c0.4-0.1,0.8,0,1.2,0.2c0.2,0.1,0.4,0.4,0.4,0.7c0,0.5-0.2,1-0.4,1.4c-0.2,0.4-0.5,0.8-0.8,1.2
		c1,0.7,2.1,1.4,2.9,2.3c0.5,0.5,0.8,1.1,0.9,1.8c0.1,0.3,0,0.7,0,1c1-0.8,1.7-2,1.9-3.2c0-1.9,0-3.9,0-5.8c-0.9,0-1.8,0-2.6,0
		c-0.2-0.1-0.2-0.3-0.2-0.5c0-0.4,0.1-0.9,0.4-1.2c0-0.1,0.1,0,0.2-0.1c0.8,0,1.6,0,2.4,0c0-0.9,0.1-1.8,0.1-2.7
		C77.5,7.8,77.5,7.5,77.6,7.3L77.6,7.3z M87.3,14.7c-0.5,0.1-0.9,0.5-1.1,1c-0.3,0.6-0.5,1.3-0.6,2c-0.1,0.9-0.2,1.8-0.1,2.6
		c0,0.7,0.1,1.4,0.5,2c0.2,0.3,0.4,0.6,0.8,0.8c0.2,0.1,0.5,0.1,0.7,0c0.5-0.2,0.8-0.7,1-1.1c0.4-0.8,0.6-1.8,0.7-2.7
		c0.1-1,0.1-2-0.1-2.9c-0.1-0.5-0.3-0.9-0.7-1.2C88.1,14.8,87.6,14.6,87.3,14.7L87.3,14.7z M98.2,14.8c-0.6,0.2-1.1,0.7-1.3,1.3
		c-0.4,0.9-0.6,1.8-0.6,2.7c0,1.1-0.1,2.1,0.3,3.2c0.2,0.5,0.4,1,0.9,1.2c0.3,0.1,0.7,0.1,0.9-0.1c0.2-0.2,0.4-0.4,0.6-0.6
		c0.4-0.5,0.6-1.1,0.8-1.8c0.2-0.9,0.3-1.9,0.3-2.9c0-0.7-0.1-1.3-0.3-1.9c-0.1-0.4-0.3-0.8-0.7-1C98.9,14.7,98.5,14.7,98.2,14.8
		L98.2,14.8z M117.3,14.8c-0.5,0.1-1,0.5-1.2,1c-0.4,0.8-0.6,1.8-0.7,2.7c-0.1,1-0.1,2.1,0.1,3.1c0.1,0.5,0.3,1,0.7,1.3
		c0.3,0.2,0.6,0.3,1,0.2c0.4-0.1,0.7-0.5,1-0.9c0.6-0.9,0.8-2,0.9-3c0.1-1,0.1-1.9-0.1-2.9c-0.1-0.5-0.3-0.9-0.7-1.2
		C118,14.9,117.6,14.8,117.3,14.8L117.3,14.8z M99.5,26.4c-1,0.9-1.8,2-2.4,3.2c-0.2,0.4-0.3,0.9-0.2,1.4c0.1,0.4,0.4,0.7,0.8,0.8
		c0.5,0.1,1,0.1,1.4-0.1c0.4-0.2,0.6-0.6,0.8-1.1c0.3-0.8,0.3-1.7,0.4-2.5c0-0.8,0-1.6,0-2.5C100.1,25.9,99.8,26.2,99.5,26.4
		L99.5,26.4z"/>
</g>
</svg>
